<svg xmlns="http://www.w3.org/2000/svg" viewBox="0 0 170 90"><style>.st1{fill:#afb1b8}</style><g id="Слой_1"><path d="M4 .5h162c1.9 0 3.5 1.6 3.5 3.5v82c0 1.9-1.6 3.5-3.5 3.5H4C2.1 89.5.5 87.9.5 86V4C.5 2.1 2.1.5 4 .5z" fill="none" stroke="#afb1b8"/><path class="st1" d="M57.4 36.8c-2.3 0-4.1 1.8-4.1 4s1.8 4 4.1 4 4.1-1.8 4.1-4-1.8-4-4.1-4zM87.6 35.6c0-3.1-1.3-6-3.5-8.2-2.2-2.2-5.2-3.4-8.4-3.4-3.1 0-6.2 1.2-8.4 3.4s-3.5 5.1-3.5 8.2v16.9c.1-.1 23.8-2.6 23.8-16.9zM45 58c0 2.1.9 4.2 2.4 5.7s3.6 2.4 5.8 2.4c2.2 0 4.3-.9 5.8-2.4s2.4-3.5 2.4-5.7V46.2C61.5 46.2 45 48 45 58zm8.2 2.1c-.4 0-.8-.1-1.2-.4-.4-.2-.6-.6-.8-.9-.2-.4-.2-.8-.1-1.2.1-.4.3-.8.6-1.1.3-.3.7-.5 1.1-.6.4-.1.9 0 1.2.1.4.2.7.4 1 .8.2.3.4.8.4 1.2 0 .3-.1.6-.2.8-.1.3-.3.5-.5.7-.2.2-.4.4-.7.5s-.5.1-.8.1zM70.1 58.8h-1.7v1.7h-.9v-4.3h2.8v.8h-1.9v1.1h1.7v.7zm4.2-.3c0 .4-.1.8-.2 1.1-.1.3-.4.6-.6.7-.3.2-.6.3-.9.3-.4 0-.7-.1-.9-.3-.3-.2-.5-.4-.6-.7-.2-.3-.2-.7-.2-1.1v-.2c0-.4.1-.8.2-1.1.2-.3.4-.6.6-.7.3-.2.6-.3.9-.3s.7.1.9.3c.3.2.5.4.6.7.2.3.2.7.2 1.1v.2zm-.9-.2c0-.4-.1-.8-.2-1-.2-.2-.4-.3-.7-.3-.3 0-.5.1-.7.3-.2.2-.2.6-.2 1v.2c0 .4.1.8.2 1 .2.2.4.4.7.4.3 0 .5-.1.7-.3.2-.2.2-.6.2-1v-.3zm3.8 1.1c0-.2-.1-.3-.2-.4-.1-.1-.3-.2-.6-.3-.3-.1-.5-.2-.7-.3-.5-.3-.7-.6-.7-1.1 0-.2.1-.4.2-.6.1-.2.3-.3.6-.4.2-.1.5-.2.8-.2.3 0 .6.1.8.2.2.1.4.3.6.5v.7h-.9c0-.2-.1-.3-.2-.5-.1-.1-.3-.2-.5-.2s-.4 0-.5.1c-.1.1-.2.2-.2.4 0 .1.1.3.2.3.1.1.3.2.6.3.5.2.9.3 1.1.6.2.2.3.5.3.8 0 .4-.1.7-.4.9-.3.2-.7.3-1.1.3-.3 0-.6-.1-.9-.2-.3-.1-.5-.3-.6-.5-.1-.2-.2-.5-.2-.7h.9c0 .5.3.7.8.7.2 0 .4 0 .5-.1.2 0 .3-.1.3-.3zm4.7-2.4h-1.3v3.6h-.9V57h-1.3v-.7h3.5v.7zm3 1.7h-1.7v1.1h2v.7h-2.9v-4.3h2.9v.8h-2v1h1.7v.7zm2.4.3h-.7v1.6h-.9v-4.3h1.6c.5 0 .9.1 1.2.3.3.2.4.5.4 1 0 .3-.1.5-.2.7-.1.2-.3.3-.6.5l.9 1.7h-.9l-.8-1.5zm-.7-.7h.7c.2 0 .4-.1.5-.2.2-.1.2-.3.2-.5s-.1-.4-.2-.5c-.1-.1-.2-.1-.5-.1h-.7v1.3zm5.3.7v1.5H91v-4.3h1.7c.3 0 .6.1.8.2.2.1.4.3.6.5.1.2.2.5.2.7 0 .4-.1.7-.4 1-.3.2-.7.4-1.2.4h-.8zm0-.7h.8c.2 0 .4-.1.5-.2.1-.1.2-.3.2-.5s-.1-.4-.2-.5c-.1-.1-.2-.1-.5-.1h-.8v1.3zm5.6.4h-1.7v1.1h2v.7h-2.9v-4.3h2.9v.8h-2v1h1.7v.7zm4.1-1.7h-1.3v3.6h-.9V57h-1.3v-.7h3.5v.7zm3 1.7H103v1.1h2v.7h-2.9v-4.3h2.9v.8h-2v1h1.7v.7zm2.4.3h-.7v1.6h-.9v-4.3h1.6c.5 0 .9.1 1.2.3.3.2.4.5.4 1 0 .3-.1.5-.2.7-.1.2-.3.3-.6.5l.9 1.7h-.9L107 59zm-.7-.7h.7c.2 0 .4-.1.5-.2.1-.1.2-.3.2-.5s-.1-.4-.2-.5c-.1-.1-.3-.2-.5-.2h-.7v1.4zm5.2 1.1c0-.2-.1-.3-.2-.4-.1-.1-.3-.2-.6-.3-.3-.1-.5-.2-.7-.3-.5-.3-.7-.6-.7-1.1 0-.2.1-.4.2-.6.1-.2.3-.3.6-.4.2-.1.5-.2.8-.2.3 0 .6.1.8.2.2.1.4.3.6.5.1.2.2.4.2.7h-.9c0-.2-.1-.3-.2-.5-.1-.1-.3-.2-.5-.2s-.4 0-.5.1c-.1.1-.2.2-.2.4 0 .1.1.3.2.3.1.1.3.2.6.3.5.2.9.3 1.1.6.2.2.3.5.3.8 0 .4-.1.7-.4.9-.3.2-.7.3-1.1.3-.3 0-.6-.1-.9-.2-.3-.1-.5-.3-.6-.5-.1-.2-.2-.5-.2-.7h.9c0 .5.3.7.8.7.2 0 .4 0 .5-.1 0 0 .1-.1.1-.3z"/></g></svg>