<svg aria-hidden="true" style="position:absolute;width:0;height:0" xmlns="http://www.w3.org/2000/svg" overflow="hidden"><defs><symbol id="icon-logo4" viewBox="0 0 60 32"><path  d="M9.228 9.526c-1.712 0-3.051 1.34-3.051 2.977 0 1.637 1.34 2.977 3.051 2.977 1.712 0 3.051-1.34 3.051-2.977 0-1.637-1.34-2.977-3.051-2.977zM31.702 8.633c0-2.307-.967-4.465-2.605-6.102S25.227.001 22.92.001c-2.307 0-4.614.893-6.251 2.53s-2.605 3.795-2.605 6.102V21.21c0-.074 17.637-1.935 17.637-12.577zM0 25.302c0 1.563.67 3.126 1.786 4.242a6.338 6.338 0 004.316 1.712c1.637 0 3.2-.67 4.316-1.786s1.786-2.605 1.786-4.242v-8.707c.074 0-12.205 1.34-12.205 8.781zm6.102 1.563c-.298 0-.595-.074-.893-.298-.298-.149-.447-.447-.595-.67s-.149-.595-.074-.893c.074-.298.223-.595.447-.819s.521-.372.819-.447c.298-.074.67 0 .893.074.298.149.521.298.744.595.149.223.298.595.298.893 0 .223-.074.447-.149.595-.074.223-.223.372-.372.521s-.298.298-.521.372c-.149 0-.372.074-.595.074zM18.679 25.898h-1.265v1.265h-.67v-3.2h2.084v.595h-1.414v.819h1.265v.521zm3.126-.224c0 .298-.074.595-.149.819s-.298.447-.447.521a1.2 1.2 0 01-.67.223c-.298 0-.521-.074-.67-.223-.223-.149-.372-.298-.447-.521-.149-.223-.149-.521-.149-.819v-.149c0-.298.074-.595.149-.819.149-.223.298-.447.447-.521a1.2 1.2 0 01.67-.223c.298 0 .521.074.67.223.223.149.372.298.447.521.149.223.149.521.149.819v.149zm-.67-.148c0-.298-.074-.595-.149-.744-.149-.149-.298-.223-.521-.223s-.372.074-.521.223c-.149.149-.149.447-.149.744v.149c0 .298.074.595.149.744.149.149.298.298.521.298s.372-.074.521-.223c.149-.149.149-.447.149-.744v-.223zm2.828.818c0-.149-.074-.223-.149-.298s-.223-.149-.447-.223c-.223-.074-.372-.149-.521-.223-.372-.223-.521-.447-.521-.819 0-.149.074-.298.149-.447s.223-.223.447-.298c.149-.074.372-.149.595-.149s.447.074.595.149c.149.074.298.223.447.372v.521h-.67c0-.149-.074-.223-.149-.372-.074-.074-.223-.149-.372-.149s-.298 0-.372.074c-.074.074-.149.149-.149.298 0 .074.074.223.149.223.074.074.223.149.447.223.372.149.67.223.819.447a.844.844 0 01.223.595c0 .298-.074.521-.298.67s-.521.223-.819.223c-.223 0-.447-.074-.67-.149s-.372-.223-.447-.372c-.074-.149-.149-.372-.149-.521h.67c0 .372.223.521.595.521.149 0 .298 0 .372-.074.149 0 .223-.074.223-.223zm3.497-1.786h-.967v2.679h-.67v-2.679h-.967v-.521h2.605v.521zm2.233 1.265h-1.265v.819h1.488v.521h-2.158v-3.2h2.158v.595h-1.488v.744h1.265v.521zm1.786.224h-.521v1.191h-.67v-3.2h1.191c.372 0 .67.074.893.223s.298.372.298.744c0 .223-.074.372-.149.521s-.223.223-.447.372l.67 1.265h-.67l-.595-1.116zm-.521-.521h.521a.564.564 0 00.372-.149c.149-.074.149-.223.149-.372s-.074-.298-.149-.372c-.074-.074-.149-.074-.372-.074h-.521v.967zm3.944.521v1.116h-.67v-3.2h1.265c.223 0 .447.074.595.149s.298.223.447.372c.074.149.149.372.149.521 0 .298-.074.521-.298.744-.223.149-.521.298-.893.298h-.595zm0-.521h.595c.149 0 .298-.074.372-.149s.149-.223.149-.372-.074-.298-.149-.372-.149-.074-.372-.074h-.595v.967zm4.168.297h-1.265v.819h1.488v.521h-2.158v-3.2h2.158v.595h-1.488v.744h1.265v.521zm3.051-1.265h-.967v2.679h-.67v-2.679h-.967v-.521h2.605v.521zm2.232 1.265h-1.191v.819h1.488v.521h-2.158v-3.2h2.158v.595h-1.488v.744h1.265v.521zm1.787.224h-.521v1.191h-.67v-3.2h1.191c.372 0 .67.074.893.223s.298.372.298.744c0 .223-.074.372-.149.521s-.223.223-.447.372l.67 1.265h-.67l-.595-1.116zm-.521-.521h.521c.149 0 .298-.074.372-.149s.149-.223.149-.372a.564.564 0 00-.149-.372c0-.074-.149-.074-.372-.074h-.521v.967zm3.869.818c0-.149-.074-.223-.149-.298s-.223-.149-.447-.223c-.223-.074-.372-.149-.521-.223-.372-.223-.521-.447-.521-.819 0-.149.074-.298.149-.447s.223-.223.447-.298c.149-.074.372-.149.595-.149s.447.074.595.149c.149.074.298.223.447.372.074.149.149.298.149.521h-.67c0-.149-.074-.223-.149-.372-.074-.074-.223-.149-.372-.149s-.298 0-.372.074c-.074.074-.149.149-.149.298 0 .074.074.223.149.223.074.074.223.149.447.223.372.149.67.223.819.447a.844.844 0 01.223.595c0 .298-.074.521-.298.67s-.521.223-.819.223c-.223 0-.447-.074-.67-.149s-.372-.223-.447-.372c-.074-.149-.149-.372-.149-.521h.595c0 .372.223.521.595.521.149 0 .298 0 .372-.074.074 0 .149-.074.149-.223z"/></symbol><symbol id="icon-logo6" viewBox="0 0 57 32"><path  d="M28.883 12.654a1.93 1.93 0 01-.338-1.219V9.667c0-.542.112-.954.336-1.235s.609-.422 1.155-.421c.513 0 .877.12 1.092.36.235.306.349.68.323 1.057v.415h-.917v-.421a2.37 2.37 0 00-.027-.412.41.41 0 00-.131-.245.495.495 0 00-.332-.095.52.52 0 00-.349.101.48.48 0 00-.152.27 2.288 2.288 0 00-.036.437v2.145c-.014.207.026.414.118.602.046.064.109.114.183.146s.156.043.237.034a.472.472 0 00.325-.097.442.442 0 00.137-.261c.021-.142.031-.286.028-.43v-.435h.917v.397c.026.393-.086.784-.317 1.111-.211.262-.57.394-1.098.394s-.927-.14-1.153-.432zM32.703 12.672c-.232-.275-.348-.676-.348-1.207V9.606c0-.525.116-.922.348-1.192s.619-.404 1.162-.403c.539 0 .925.134 1.157.403.232.27.349.667.349 1.192v1.859c0 .525-.118.928-.353 1.205s-.619.415-1.153.415-.929-.14-1.162-.413zm1.589-.446c.083-.172.121-.361.11-.55V9.4a1.083 1.083 0 00-.108-.539c-.047-.065-.111-.116-.187-.148s-.16-.043-.242-.032c-.082-.011-.166 0-.243.032s-.141.083-.189.148a1.064 1.064 0 00-.11.539v2.287c-.012.189.026.378.11.55a.593.593 0 00.858 0v-.011zM36.474 8.066h.988l.743 3.43.76-3.43h.961l.097 4.951h-.71l-.076-3.441-.733 3.441h-.57l-.76-3.454-.07 3.454h-.718l.089-4.951zM41.13 8.066h1.538c.886 0 1.329.469 1.329 1.406 0 .898-.467 1.346-1.4 1.345h-.524v2.201h-.95l.006-4.951zm1.314 2.116c.094.011.189.003.279-.024s.173-.072.243-.133a.861.861 0 00.137-.559 1.656 1.656 0 00-.046-.449.383.383 0 00-.19-.236.906.906 0 00-.424-.079h-.368v1.48h.368zM45.366 8.066h1.02l1.046 4.951h-.885l-.207-1.142h-.91l-.213 1.142h-.898l1.046-4.951zm.872 3.236l-.355-2.078-.355 2.078h.71zM48.278 8.066h.665l1.272 2.824V8.066h.788v4.951h-.632l-1.28-2.948v2.948h-.815l.002-4.951zM52.85 11.129l-1.058-3.056h.891l.646 1.963.606-1.963h.872l-1.045 3.056v1.888h-.912v-1.888zM30.349 15.182v.259h-.775v2.012h-.325v-2.012h-.779v-.259h1.878zM32.779 17.453h-.251a.103.103 0 01-.07-.022.119.119 0 01-.042-.052l-.224-.539h-1.075l-.224.539a.148.148 0 01-.034.061.11.11 0 01-.07.022h-.251l.95-2.271h.331l.961 2.262zm-1.573-.844h.896l-.38-.924a1.621 1.621 0 01-.07-.214l-.036.12-.034.095-.376.922zM34.416 17.23a.988.988 0 00.331-.027c.047-.011.092-.025.137-.041.042-.016.084-.036.127-.056v-.511h-.38a.072.072 0 01-.052-.018c-.006-.005-.011-.012-.014-.019s-.005-.015-.005-.023v-.174h.737v.87a1.368 1.368 0 01-.638.232 2.57 2.57 0 01-.277.014 1.347 1.347 0 01-.479-.084 1.16 1.16 0 01-.38-.237 1.097 1.097 0 01-.332-.831 1.288 1.288 0 01.085-.475c.055-.135.138-.257.245-.36.108-.102.238-.182.38-.236.163-.058.335-.087.509-.085.088 0 .177.007.264.02a1.172 1.172 0 01.581.267l-.091.14c-.007.013-.018.024-.031.031s-.028.012-.043.012a.123.123 0 01-.059-.018.984.984 0 01-.093-.054.824.824 0 00-.127-.061 1.167 1.167 0 00-.175-.05 1.3 1.3 0 00-.241-.02c-.125-.001-.25.02-.367.063a.775.775 0 00-.456.462 1.156 1.156 0 000 .757.814.814 0 00.19.286.804.804 0 00.277.18.978.978 0 00.376.045zM37.443 17.193h1.037v.259h-1.354v-2.271h.325l-.008 2.012zM39.559 17.452h-.325v-2.271h.325v2.271zM40.767 15.192c.019.01.036.025.049.041l1.388 1.712a.547.547 0 010-.081V15.172h.283v2.28h-.163a.141.141 0 01-.07-.013.177.177 0 01-.051-.043l-1.386-1.71V17.451h-.272V15.18h.169a.14.14 0 01.053.011zM44.878 15.182v.25h-1.151v.75h.932v.241h-.932v.775h1.151v.25h-1.485v-2.265h1.485zM10.847 1.158l14.421 3.876v13.583l-14.421-3.875V1.157zM9.922 0v15.403l16.269 4.374V4.376L9.922 0z"/><path  d="M18.641 26.928L2.37 22.55V7.149l16.271 4.376v15.403zM10.191.983l14.233 3.828-6.053 5.732-14.235-3.83 6.055-5.73zM9.922 0L2.371 7.149l16.271 4.376 7.549-7.149L9.922 0zM19.556 26.061l6.634-6.282-6.634-1.785v8.067z"/></symbol><symbol id="icon-logo5" viewBox="0 0 40 32"><path  d="M3.055 26.742c.156.195.24.438.236.688a1.092 1.092 0 01-.365.869 1.575 1.575 0 01-1.061.317H0v-4.361h1.827c.361-.024.718.078 1.012.29a.998.998 0 01.354.816c.011.241-.065.477-.212.667a.997.997 0 01-.556.341c.247.045.471.177.63.373zm-2.187-.658h.781a.736.736 0 00.496-.145.507.507 0 00.167-.426.526.526 0 00-.165-.426.75.75 0 00-.511-.147H.868v1.144zm1.354 1.672a.54.54 0 00.185-.443.56.56 0 00-.188-.448.803.803 0 00-.53-.158H.87v1.199h.83a.822.822 0 00.524-.151zM6.79 28.617l-1.016-1.704h-.382v1.704h-.874v-4.361h1.655c.417-.029.83.103 1.152.371a1.394 1.394 0 01.123 1.804 1.337 1.337 0 01-.789.443l1.082 1.743H6.79zm-1.399-2.299h.715c.497 0 .745-.22.745-.66a.641.641 0 00-.183-.49.771.771 0 00-.562-.177h-.724l.008 1.327zM11.568 27.739H9.826l-.308.878h-.917l1.6-4.312h.991l1.594 4.312h-.917l-.301-.878zm-.233-.66l-.637-1.841-.637 1.841h1.273zM17.55 28.617h-.868l-1.946-2.965v2.965h-.866v-4.361h.866l1.946 2.982v-2.982h.868v4.361zM22.502 27.573a1.877 1.877 0 01-.785.769 2.546 2.546 0 01-1.22.275h-1.545v-4.361h1.545c.422-.011.841.081 1.22.268.332.168.606.433.785.761a2.541 2.541 0 010 2.288zm-.993-.104a1.601 1.601 0 000-2.082 1.506 1.506 0 00-1.086-.371h-.603v2.823h.603a1.5 1.5 0 001.086-.371zM12.111 0s11.201 4.246 10.963 10.39v10.392S11.881 16.534 12.115 10.39L12.111 0zM33.054 18.349a15.301 15.301 0 017.117-2.633v-3.253a14.62 14.62 0 00-7.117 5.886z"/><path  d="M31.783 19.329a15.237 15.237 0 018.388-7.548V2.407S24.219 8.455 24.557 17.204v14.795s.711-.271 1.829-.778c0-.473 0-.95.051-1.429a15.387 15.387 0 015.347-10.464z"/><path  d="M30.266 24.825a15.35 15.35 0 01.558-3.029 14.323 14.323 0 00-3.378 8.937 46.367 46.367 0 003.068-1.623 15.355 15.355 0 01-.248-4.284zM30.9 24.878a14.705 14.705 0 00.197 3.879c4.358-2.618 9.255-6.664 9.066-11.553v-.426a14.276 14.276 0 00-8.292 3.89 14.648 14.648 0 00-.972 4.21z"/></symbol><symbol id="icon-logo3" viewBox="0 0 31 32"><path  d="M4.722 31.103a.088.088 0 01.059.025l.153.161c-.119.13-.266.234-.431.305a1.532 1.532 0 01-.611.109 1.496 1.496 0 01-.574-.102 1.25 1.25 0 01-.712-.733 1.618 1.618 0 01-.098-.571c-.003-.195.033-.39.105-.573.067-.166.168-.317.297-.445.131-.126.287-.224.459-.29.189-.07.389-.104.591-.102.188-.004.375.027.549.093.152.063.291.15.412.257l-.128.171a.122.122 0 01-.033.031.084.084 0 01-.052.013.123.123 0 01-.056-.018l-.069-.046-.096-.058a.978.978 0 00-.302-.103 1.238 1.238 0 00-.228-.018 1.12 1.12 0 00-.425.077.96.96 0 00-.333.215.997.997 0 00-.216.343c-.054.145-.08.298-.078.452-.002.156.024.312.078.46.047.126.119.242.212.341a.863.863 0 00.318.212c.125.049.259.074.394.073.078.001.156-.004.234-.015a.87.87 0 00.354-.122c.054-.034.104-.072.151-.113a.115.115 0 01.073-.029zM9.144 30.296c.002.194-.033.386-.103.567-.062.165-.161.315-.288.44s-.282.224-.452.289a1.711 1.711 0 01-1.164 0 1.281 1.281 0 01-.741-.735 1.61 1.61 0 010-1.136c.065-.166.164-.317.291-.447.128-.121.281-.216.45-.279.374-.139.79-.139 1.164 0 .17.066.324.165.452.29.126.127.224.276.289.44.071.183.106.376.103.571zm-.402 0a1.313 1.313 0 00-.073-.456.898.898 0 00-.528-.556 1.23 1.23 0 00-.846 0 .901.901 0 00-.531.556 1.465 1.465 0 000 .912.888.888 0 00.531.554c.273.097.573.097.846 0a.884.884 0 00.528-.554c.051-.147.076-.301.073-.456zM12.161 30.774l.04.102a3.46 3.46 0 01.044-.102.933.933 0 01.05-.1l.978-1.694c.019-.029.036-.047.056-.053a.217.217 0 01.08-.009h.289v2.755h-.343v-2.026-.086a.753.753 0 010-.095l-.984 1.718c-.012.026-.033.047-.058.063s-.054.023-.084.023h-.056a.154.154 0 01-.141-.086l-1.013-1.729V31.668h-.331v-2.75h.289a.24.24 0 01.08.009c.024.011.043.03.054.053l.999 1.696c.02.031.036.064.05.098zM15.841 30.638v1.032h-.383v-2.752h.854a1.67 1.67 0 01.477.06.912.912 0 01.337.171.699.699 0 01.191.27.905.905 0 01.065.352.84.84 0 01-.071.352.744.744 0 01-.207.275.936.936 0 01-.339.182 1.498 1.498 0 01-.461.064l-.463-.007zm0-.296h.463a.992.992 0 00.297-.042.617.617 0 00.214-.119.477.477 0 00.13-.182.579.579 0 00.046-.232.522.522 0 00-.172-.412.766.766 0 00-.515-.148h-.463v1.134zM20.987 31.673h-.302a.133.133 0 01-.084-.026.164.164 0 01-.05-.064l-.26-.666h-1.307l-.27.666a.145.145 0 01-.048.062.132.132 0 01-.086.027h-.302l1.148-2.756h.398l1.164 2.756zm-1.895-1.023h1.08l-.456-1.122a1.828 1.828 0 01-.086-.259l-.044.144c-.013.044-.029.084-.042.117l-.452 1.12zM22.641 28.931a.16.16 0 01.057.049l1.675 2.077v-.097V28.918h.343v2.756h-.191a.173.173 0 01-.078-.016.2.2 0 01-.061-.051l-1.673-2.075a.753.753 0 010 .095v2.048h-.343v-2.756h.203a.163.163 0 01.069.013zM27.537 30.577v1.094h-.383v-1.094l-1.059-1.66h.343a.124.124 0 01.082.024.256.256 0 01.052.062l.662 1.071a1.256 1.256 0 01.117.245l.05-.119c.019-.043.04-.085.065-.126l.653-1.078a.274.274 0 01.05-.058.116.116 0 01.082-.027h.346l-1.06 1.667zM11.971 24.293c.167.02.335.036.505.051 2.583-1.101 4.768-2.902 6.282-5.18s2.29-4.929 2.231-7.624l-2.846-2.712c.579 2.869.308 5.836-.782 8.567s-2.956 5.12-5.389 6.898z"/><path  d="M10.955 24.167l.077.015c2.6-1.772 4.583-4.247 5.691-7.104s1.292-5.965.526-8.922l-4.054-3.862c1.64 3.175 2.3 6.728 1.903 10.246s-1.833 6.857-4.143 9.628zM24.704 14.725c-.689 2.961-2.362 5.632-4.77 7.616a15.094 15.094 0 01-2.266 1.55c1.961-.549 3.764-1.52 5.269-2.838s2.672-2.947 3.412-4.763l-1.644-1.565z"/><path  d="M24.059 14.289l-2.341-2.23c-.045 2.543-.804 5.028-2.197 7.197s-3.372 3.943-5.729 5.137h.012a14 14 0 001.572-.089c2.203-.857 4.148-2.219 5.664-3.967s2.553-3.825 3.021-6.047zM11.294 2.664L8.501 0C6.004.919 3.857 2.535 2.34 4.636S.008 9.225 0 11.775c.009 2.818 1.005 5.552 2.829 7.77s4.372 3.793 7.242 4.476c2.561-2.973 4.061-6.647 4.281-10.488s-.851-7.648-3.058-10.869zM30.512 13.878c-.01-3.343-1.408-6.546-3.89-8.91s-5.843-3.696-9.352-3.706a13.655 13.655 0 00-4.741.841l17.099 16.291c.586-1.44.885-2.971.884-4.515z"/></symbol><symbol id="icon-logo2" viewBox="0 0 25 32"><path  d="M10.447 1.806h.084c.156 0 .324.016.49.03.734.052 1.463.162 2.179.329V.403a12.97 12.97 0 00-2.25-.358 18.11 18.11 0 00-.909-.044h-.263a18.35 18.35 0 00-4.515.582 18.3 18.3 0 00-4.79 1.948v17.475a19.484 19.484 0 014.566-1.779 19.948 19.948 0 013.833-.588h.051c.216-.011.433-.017.655-.019v-1.79a21.155 21.155 0 00-4.982.662 23.81 23.81 0 00-1.731.513l-.623.211V3.591l.266-.128a17.409 17.409 0 016.471-1.651.523.523 0 01.056 0c.248-.013.497-.019.741-.019h.28c.129.003.258.006.388.014z"/><path  d="M14.838 3.651a15.823 15.823 0 01-2.606-.211c-.277-.047-.55-.103-.814-.164v17.275a13.82 13.82 0 003.425.404 18.396 18.396 0 004.515-.581 18.362 18.362 0 004.792-1.948V1.263a19.562 19.562 0 01-4.564 1.781 19.388 19.388 0 01-4.747.609zm6.907.299l.623-.21v13.63l-.266.128a17.055 17.055 0 01-3.184 1.144c-1.331.344-2.7.522-4.074.527-.411 0-.819-.017-1.214-.052l-.427-.038V5.062l.497.033c.361.023.735.034 1.141.034a21.098 21.098 0 005.173-.663 26.802 26.802 0 001.731-.518zM1.684 25.977a.912.912 0 00-.693-.28 1.034 1.034 0 00-.4.075.91.91 0 00-.512.518 1.023 1.023 0 00-.072.387v2.335c-.006.165.026.328.092.479.055.12.135.226.233.313a.815.815 0 00.321.166c.114.032.231.048.349.049a.972.972 0 00.892-.61.951.951 0 00.075-.372v-.261h-.61v.208a.528.528 0 01-.036.208.359.359 0 01-.089.131.365.365 0 01-.128.067.425.425 0 01-.128.022.314.314 0 01-.286-.125.548.548 0 01-.081-.313v-2.177a.738.738 0 01.075-.349.31.31 0 01.299-.141.33.33 0 01.272.131c.068.09.104.2.101.313v.202h.604v-.238a1.093 1.093 0 00-.279-.737zM5.31 25.95a1.091 1.091 0 00-.694-.257 1.075 1.075 0 00-.364.066.965.965 0 00-.559.518 1.099 1.099 0 00-.089.452v2.239a1.08 1.08 0 00.089.459c.055.12.136.227.237.313a.94.94 0 00.322.197 1.028 1.028 0 00.728 0c.121-.044.233-.111.33-.197a.948.948 0 00.23-.313c.063-.144.093-.301.089-.459v-2.239a1.08 1.08 0 00-.089-.452 1.015 1.015 0 00-.23-.327zm-.285 3.019a.405.405 0 01-.121.324.445.445 0 01-.574 0 .397.397 0 01-.121-.324V26.73a.405.405 0 01.121-.324.445.445 0 01.574 0 .397.397 0 01.121.324v2.239zM10.072 29.969V25.73h-.587l-.771 2.244h-.011l-.777-2.244h-.581v4.239h.606V27.39h.011l.593 1.823h.302l.598-1.823h.011v2.579h.606zM13.513 26.027a.84.84 0 00-.343-.232 1.363 1.363 0 00-.439-.066h-.9v4.239h.604v-1.656h.311c.188.009.376-.031.545-.116a.882.882 0 00.332-.324 1.02 1.02 0 00.139-.369c.024-.16.035-.321.033-.482a2.421 2.421 0 00-.059-.606.898.898 0 00-.223-.39zm-.312 1.292a.547.547 0 01-.056.221.346.346 0 01-.156.149.619.619 0 01-.285.053h-.276v-1.441h.311a.578.578 0 01.272.053.349.349 0 01.142.157.62.62 0 01.053.236v.282c0 .099.006.2 0 .291H13.2zM16.374 25.73h-.495l-.934 4.239h.604l.177-.911h.824l.177.911h.604l-.957-4.239zm-.558 2.751l.297-1.537h.011l.296 1.537h-.604zM20.277 28.283h-.011l-.912-2.554h-.581v4.239h.604v-2.549h.012l.923 2.549h.568v-4.239h-.604v2.554zM23.968 25.73l-.486 1.685h-.012l-.486-1.685h-.64l.83 2.447v1.792h.604v-1.792l.83-2.447h-.64zM0 31.166h.291v.817h.198v-.817h.29v-.167H.001v.167zM2.447 30.998l-.381.984h.21l.081-.224h.392l.084.224h.215l-.391-.984h-.21zm-.031.595l.134-.365.134.365h-.268zM4.866 31.62h.227v.127a.382.382 0 01-.234.083.244.244 0 01-.209-.093.411.411 0 01-.073-.257c0-.219.095-.329.283-.329a.206.206 0 01.222.157l.195-.038c-.042-.192-.181-.29-.417-.29a.495.495 0 00-.344.127.494.494 0 00-.141.379.532.532 0 00.126.369.477.477 0 00.374.144.594.594 0 00.417-.156v-.388h-.427v.166zM7.337 30.998h-.199v.984h.69v-.167h-.49v-.817zM9.426 30.998h-.199v.984h.199v-.984zM11.469 31.656l-.403-.657h-.193v.984h.185v-.643l.395.643h.198v-.984h-.182v.657zM13.315 31.549h.49v-.167h-.49v-.216h.528v-.167h-.727v.984h.747v-.167h-.548v-.266zM17.792 31.387h-.388v-.388h-.198v.984h.198v-.43h.388v.43h.198v-.984h-.198v.388zM19.649 31.549h.492v-.167h-.492v-.216h.529v-.167h-.727v.984h.746v-.167h-.548v-.266zM22.168 31.549c.171-.027.258-.117.258-.274a.236.236 0 00-.096-.219.553.553 0 00-.288-.058h-.417v.984h.198v-.412h.039a.261.261 0 01.123.022.21.21 0 01.07.072l.215.313h.237l-.12-.192a.685.685 0 00-.218-.236zm-.199-.136h-.146v-.247h.156a.507.507 0 01.201.023c.014.013.026.029.033.046a.133.133 0 01-.005.111.128.128 0 01-.037.043.547.547 0 01-.201.023zM24.067 31.549h.49v-.167h-.49v-.216h.529v-.167h-.729v.984h.747v-.167h-.548v-.266z"/></symbol><symbol id="icon-logo1" viewBox="0 0 29 32"><path  d="M3.84 0l4.677 4.428h13.046v12.351l4.677 4.428V.001H3.84z"/><path  d="M0 4.241v20.6h21.76v-8.188L8.655 4.247 0 4.242zm17.615 17.587H3.443V7.974h1.002V20.89h13.17v.938zM6.266 28.662l.523-1.078h.438l-.763 1.438v.837h-.397v-.837l-.764-1.438h.439l.523 1.078zm2.247.667h-.881l-.184.53h-.411l.859-2.275h.355l.861 2.275H8.7l-.186-.53zm-.77-.319h.659l-.33-.944-.33.944zm2.328.234c0-.105.029-.202.086-.289.057-.089.17-.193.339-.314-.088-.111-.151-.206-.186-.284s-.052-.154-.052-.227c0-.178.054-.319.162-.422s.254-.156.438-.156a.57.57 0 01.406.147.47.47 0 01.159.361.5.5 0 01-.072.262.879.879 0 01-.236.238l-.155.113.439.519a.9.9 0 00.095-.417h.33c0 .28-.066.51-.197.689l.334.395h-.441l-.128-.152c-.162.122-.356.183-.581.183s-.405-.059-.541-.178a.599.599 0 01-.202-.467zm.753.343a.58.58 0 00.359-.128l-.497-.586-.048.034c-.125.095-.188.203-.188.325 0 .105.034.191.102.256s.158.098.272.098zm-.209-1.466c0 .087.054.197.161.33l.173-.119.048-.039a.28.28 0 00.097-.22.2.2 0 00-.067-.152.236.236 0 00-.17-.064c-.074 0-.133.025-.177.075s-.066.113-.066.189zm4.133.997a.827.827 0 01-.269.569c-.156.135-.364.203-.623.203a.902.902 0 01-.48-.128c-.137-.086-.244-.209-.319-.367s-.114-.342-.117-.552v-.212c0-.215.038-.404.114-.567a.86.86 0 01.821-.511c.251 0 .453.068.606.205s.242.329.267.578h-.394c-.019-.164-.067-.281-.144-.353-.076-.073-.188-.109-.336-.109a.464.464 0 00-.397.189c-.092.125-.139.309-.141.552v.202c0 .246.044.433.131.563s.218.194.387.194c.155 0 .272-.035.35-.105s.128-.186.148-.348h.394zm2.17-.338c0 .223-.039.419-.116.588a.884.884 0 01-.331.388.905.905 0 01-.494.134.926.926 0 01-.494-.134.896.896 0 01-.334-.386 1.362 1.362 0 01-.119-.576v-.128c0-.222.039-.418.117-.588a.887.887 0 01.333-.389c.144-.091.308-.136.494-.136s.349.045.492.134c.144.088.255.217.333.384s.118.361.119.583v.127zm-.395-.118c0-.252-.048-.445-.144-.58a.468.468 0 00-.405-.202.467.467 0 00-.402.202c-.096.133-.145.322-.147.567v.131c0 .25.048.443.145.58s.233.205.406.205a.464.464 0 00.403-.2c.095-.133.142-.328.142-.584v-.119z"/></symbol></defs></svg>